<svg width="40" height="41" viewBox="0 0 40 41" fill="none" xmlns="http://www.w3.org/2000/svg">
<path d="M16.2485 11.4116C13.3543 11.4116 11 13.7681 11 16.6631V24.1631C11 27.0573 13.3565 29.4116 16.2515 29.4116H23.7515C26.6457 29.4116 29 27.0552 29 24.1602V16.6602C29 13.7659 26.6435 11.4116 23.7485 11.4116H16.2485ZM25.25 14.4116C25.664 14.4116 26 14.7476 26 15.1616C26 15.5756 25.664 15.9116 25.25 15.9116C24.836 15.9116 24.5 15.5756 24.5 15.1616C24.5 14.7476 24.836 14.4116 25.25 14.4116ZM20 15.9116C22.4818 15.9116 24.5 17.9299 24.5 20.4116C24.5 22.8934 22.4818 24.9116 20 24.9116C17.5182 24.9116 15.5 22.8934 15.5 20.4116C15.5 17.9299 17.5182 15.9116 20 15.9116ZM20 17.4116C19.2044 17.4116 18.4413 17.7277 17.8787 18.2903C17.3161 18.8529 17 19.616 17 20.4116C17 21.2073 17.3161 21.9703 17.8787 22.5329C18.4413 23.0955 19.2044 23.4116 20 23.4116C20.7956 23.4116 21.5587 23.0955 22.1213 22.5329C22.6839 21.9703 23 21.2073 23 20.4116C23 19.616 22.6839 18.8529 22.1213 18.2903C21.5587 17.7277 20.7956 17.4116 20 17.4116Z" fill="#312E41" fill-opacity="0.7"/>
</svg>
