<svg width="40" height="41" viewBox="0 0 40 41" fill="none" xmlns="http://www.w3.org/2000/svg">
<path fill-rule="evenodd" clip-rule="evenodd" d="M27.4878 29.4116H13.4878C12.3832 29.4116 11.4878 28.5162 11.4878 27.4116V13.4116C11.4878 12.3071 12.3832 11.4116 13.4878 11.4116H27.4878C28.5924 11.4116 29.4878 12.3071 29.4878 13.4116V27.4116C29.4878 28.5162 28.5924 29.4116 27.4878 29.4116ZM24.3172 26.9114H26.9883V21.4242C26.9883 19.1025 25.6722 17.9799 23.8339 17.9799C21.9948 17.9799 21.2208 19.4121 21.2208 19.4121V18.2447H18.6466V26.9114H21.2208V22.3619C21.2208 21.1429 21.7819 20.4175 22.8559 20.4175C23.8432 20.4175 24.3172 21.1146 24.3172 22.3619V26.9114ZM13.9883 15.5106C13.9883 16.3938 14.6988 17.1099 15.5756 17.1099C16.4524 17.1099 17.1625 16.3938 17.1625 15.5106C17.1625 14.6275 16.4524 13.9114 15.5756 13.9114C14.6988 13.9114 13.9883 14.6275 13.9883 15.5106ZM16.9306 26.9114H14.2464V18.2447H16.9306V26.9114Z" fill="#312E41" fill-opacity="0.7"/>
</svg>
