<svg width="40" height="41" viewBox="0 0 40 41" fill="none" xmlns="http://www.w3.org/2000/svg">
<path fill-rule="evenodd" clip-rule="evenodd" d="M12.9145 13.6735C11.3661 13.7964 10.1958 15.0678 10.1204 16.6344C10.0583 17.9252 10 19.4104 10 20.4357C10 21.4728 10.0597 22.9805 10.1226 24.2814C10.1973 25.828 11.3408 27.0909 12.8677 27.2333C14.5578 27.3908 17.0031 27.5496 20 27.5496C22.9891 27.5496 25.4294 27.3918 27.1191 27.2346C28.6519 27.092 29.7977 25.8208 29.8713 24.2682C29.9364 22.8985 30 21.3313 30 20.4357C30 19.5499 29.9378 18.0066 29.8735 16.6475C29.7991 15.0748 28.6269 13.7956 27.0726 13.6726C25.409 13.5409 23.0094 13.4116 19.9999 13.4116C16.9826 13.4116 14.5784 13.5415 12.9145 13.6735L12.9145 13.6735ZM18.0003 17.4382L23.1559 20.4357L18.0003 23.4334V17.4382Z" fill="#312E41" fill-opacity="0.7"/>
</svg>
